HIERARCHY
ROOT Hips
{
	OFFSET	0.00	0.00	0.00
	CHANNELS 6 Xposition Yposition Zposition Zrotation Xrotation Yrotation
	JOINT LeftUpLeg
	{
		OFFSET	 0.126116	-0.014019	-0.065224
		CHANNELS 3 Zrotation Xrotation Yrotation
		JOINT LeftLeg
		{
			OFFSET	 0.000000	 0.000000	 0.569914
			CHANNELS 3 Zrotation Xrotation Yrotation
			JOINT LeftFoot
			{
				OFFSET	 0.000000	 0.000000	 0.544423
				CHANNELS 3 Zrotation Xrotation Yrotation
				JOINT LeftToeBase
				{
					OFFSET	 0.000000	 0.000000	 0.207117
					CHANNELS 3 Zrotation Xrotation Yrotation
					End Site
					{
						OFFSET	 0.000000	 0.000000	 0.207117
					}
				}
			}
		}
	}
	JOINT RightUpLeg
	{
		OFFSET	-0.124023	-0.008373	-0.065224
		CHANNELS 3 Zrotation Xrotation Yrotation
		JOINT RightLeg
		{
			OFFSET	 0.000000	 0.000000	 0.570047
			CHANNELS 3 Zrotation Xrotation Yrotation
			JOINT RightFoot
			{
				OFFSET	 0.000000	 0.000000	 0.544354
				CHANNELS 3 Zrotation Xrotation Yrotation
				JOINT RightToeBase
				{
					OFFSET	 0.000000	 0.000000	 0.207540
					CHANNELS 3 Zrotation Xrotation Yrotation
					End Site
					{
						OFFSET	 0.000000	 0.000000	 0.207540
					}
				}
			}
		}
	}
	JOINT Spine
	{
		OFFSET	 0.000184	-0.007763	 0.117403
		CHANNELS 3 Zrotation Xrotation Yrotation
		JOINT Spine1
		{
			OFFSET	 0.000000	 0.000000	 0.137269
			CHANNELS 3 Zrotation Xrotation Yrotation
			JOINT Spine2
			{
				OFFSET	 0.000000	 0.000000	 0.156879
				CHANNELS 3 Zrotation Xrotation Yrotation
				JOINT LeftShoulder
				{
					OFFSET	 0.080501	-0.002496	 0.160144
					CHANNELS 3 Zrotation Xrotation Yrotation
					JOINT LeftArm
					{
						OFFSET	 0.000000	 0.000000	 0.164363
						CHANNELS 3 Zrotation Xrotation Yrotation
						JOINT LeftForeArm
						{
							OFFSET	 0.000000	 0.000000	 0.364576
							CHANNELS 3 Zrotation Xrotation Yrotation
							JOINT LeftHand
							{
								OFFSET	 0.000000	 0.000000	 0.360812
								CHANNELS 3 Zrotation Xrotation Yrotation
								JOINT LeftHandIndex1
								{
									OFFSET	 0.000000	 0.000000	 0.086006
									CHANNELS 3 Zrotation Xrotation Yrotation
									JOINT LeftHandIndex2
									{
										OFFSET	 0.000000	 0.000000	 0.047237
										CHANNELS 3 Zrotation Xrotation Yrotation
										JOINT LeftHandIndex3
										{
											OFFSET	-0.004284	-0.000551	 0.038165
											CHANNELS 3 Zrotation Xrotation Yrotation
											End Site
											{
												OFFSET	-0.004284	-0.000551	 0.038165
											}
										}
									}
								}
							}
						}
					}
				}
				JOINT Neck
				{
					OFFSET	 0.000000	 0.000000	 0.176489
					CHANNELS 3 Zrotation Xrotation Yrotation
					JOINT Head
					{
						OFFSET	 0.000000	-0.001747	 0.077940
						CHANNELS 3 Zrotation Xrotation Yrotation
						End Site
						{
							OFFSET	 0.000000	-0.001747	 0.077940
						}
					}
				}
				JOINT RightShoulder
				{
					OFFSET	-0.080363	 0.000306	 0.159706
					CHANNELS 3 Zrotation Xrotation Yrotation
					JOINT RightArm
					{
						OFFSET	 0.000000	 0.000000	 0.164196
						CHANNELS 3 Zrotation Xrotation Yrotation
						JOINT RightForeArm
						{
							OFFSET	 0.000000	 0.000000	 0.365611
							CHANNELS 3 Zrotation Xrotation Yrotation
							JOINT RightHand
							{
								OFFSET	 0.000000	 0.000000	 0.360648
								CHANNELS 3 Zrotation Xrotation Yrotation
								JOINT RightHandIndex1
								{
									OFFSET	 0.000000	 0.000000	 0.069977
									CHANNELS 3 Zrotation Xrotation Yrotation
									JOINT RightHandIndex2
									{
										OFFSET	 0.000000	 0.000000	 0.052305
										CHANNELS 3 Zrotation Xrotation Yrotation
										JOINT RightHandIndex3
										{
											OFFSET	 0.009002	-0.000782	 0.042196
											CHANNELS 3 Zrotation Xrotation Yrotation
											End Site
											{
												OFFSET	 0.009002	-0.000782	 0.042196
											}
										}
									}
								}
							}
						}
					}
				}
			}
		}
	}
}
MOTION
Frames:    13
Frame Time: 0.03333334
-0.712311	-1.649109	 1.273378	-176.470900	 6.650216	-2.180432	 2.644465	-10.697330	 178.526400	 0.374029	-19.006680	 0.757948	-26.196640	 56.921960	 16.912140	-2.385833	 28.452760	 0.000004	-5.473827	-14.341330	-176.351200	-6.096021	-19.685720	 1.621745	 17.298880	 83.884800	-6.548196	 2.384659	 28.388700	-0.000001	-10.072120	 5.460517	 3.649179	-6.399143	-6.541740	-16.802900	 10.896040	-9.132075	 17.994460	-91.776160	 78.527360	 180.000000	-33.634160	 3.666284	 12.021210	-9.517050	-6.937380	-51.286820	 7.249496	-3.543419	-4.027931	-4.131196	 21.524690	 0.986298	-5.167839	 0.733520	 3.519257	-1.378229	 35.397820	-2.634230	 1.427092	 7.996811	 1.109802	-13.330140	-9.022790	-4.535204	 89.782140	 78.203920	 180.000000	-4.916836	 7.420539	-6.769381	-3.626517	-12.774930	 36.829230	-20.106040	 35.565860	 75.715190	 5.715225	 19.176060	-3.692089	 5.027514	 0.245388	-9.378011	-2.350882	 35.473990	 5.254307
-0.711022	-1.647149	 1.272973	-176.434300	 6.716577	-2.286541	 2.563119	-10.955500	 178.362400	 0.701724	-20.019190	 0.909077	-27.285310	 57.085180	 17.981550	-2.385833	 28.452760	 0.000004	-4.840599	-15.018020	-176.121000	-6.387959	-20.547300	 1.586641	 23.383330	 84.699170	-12.384760	 2.384659	 28.388700	-0.000001	-10.479850	 5.189924	 3.691020	-6.818707	-5.555963	-17.037940	 11.076770	-9.562428	 18.170200	-91.776180	 78.527350	-180.000000	-32.619980	 5.376888	 15.763930	-10.370890	-7.393474	-57.559540	 7.132849	-3.613700	-3.986477	-4.131196	 21.524690	 0.986298	-5.167839	 0.733520	 3.519257	-1.378229	 35.397820	-2.634230	 1.392249	 7.962430	 1.215079	-13.287540	-8.882485	-4.477429	 89.782070	 78.203900	-180.000000	-5.293659	 9.223193	-8.228883	-2.522242	-14.030210	 41.457840	-18.815350	 35.678700	 72.435860	 5.715225	 19.176060	-3.692089	 5.027514	 0.245388	-9.378011	-2.350882	 35.473990	 5.254307
-0.707710	-1.641737	 1.272012	-176.378300	 6.912528	-2.458583	 2.049113	-11.498140	 177.796900	 1.548305	-22.467340	 1.339134	-30.264200	 57.403830	 20.965230	-2.385833	 28.452760	 0.000004	-3.890542	-16.790780	-175.611400	-6.784590	-22.571650	 1.582105	 37.335270	 85.198740	-26.050530	 2.384659	 28.388700	-0.000001	-11.587080	 4.442104	 3.664048	-7.946489	-2.666307	-17.801800	 11.717000	-10.910040	 18.959730	-91.776200	 78.527380	-180.000000	-29.923380	 10.135080	 24.105120	-12.380190	-7.981337	-71.458260	 6.841503	-3.781073	-3.888780	-4.131196	 21.524690	 0.986298	-5.167839	 0.733520	 3.519257	-1.378229	 35.397820	-2.634230	 1.402325	 7.968801	 1.317552	-13.222680	-8.839253	-4.452161	 89.782200	 78.203920	 179.999900	-6.430862	 14.204990	-10.789160	 0.146142	-16.440400	 51.523010	-16.797090	 34.901130	 65.416440	 5.715225	 19.176060	-3.692089	 5.027514	 0.245388	-9.378011	-2.350882	 35.473990	 5.254307
-0.688316	-1.606125	 1.267901	-176.581800	 9.414040	-2.365442	-3.012618	-12.240000	 173.524600	 4.881125	-30.838660	 3.515156	-44.450140	 56.978980	 35.946510	-2.385833	 28.452760	 0.000004	-2.071016	-26.902850	-173.266200	-6.543023	-29.636790	 2.157816	 34.205570	 74.658100	-24.807610	 2.384659	 28.388700	-0.000001	-18.265040	-0.468313	-0.460200	-15.389550	 13.916520	-16.654900	 15.802800	-19.326470	 22.141730	-91.776220	 78.527400	-180.000000	 3.194802	 43.075100	 21.310280	-16.358350	-7.244284	-100.302100	 5.983335	-4.227787	-3.617245	-4.131196	 21.524690	 0.986298	-5.167839	 0.733520	 3.519257	-1.378229	 35.397820	-2.634230	 1.770527	 8.249013	 0.985748	-13.158350	-9.472871	-4.494202	 89.782130	 78.203900	 180.000000	-15.778780	 46.472560	-3.499197	 4.987834	-19.877000	 67.976020	-34.574690	 18.158670	 51.012370	 5.715225	 19.176060	-3.692089	 5.027514	 0.245388	-9.378011	-2.350882	 35.473990	 5.254307
-0.662902	-1.558816	 1.265838	-176.782000	 13.345890	-0.185949	-8.067296	-9.925342	 167.525000	 2.260375	-32.792530	 2.284391	-42.920760	 50.151110	 40.049660	-2.385833	 28.452760	 0.000004	-2.058613	-35.585490	-173.213800	-7.317439	-31.373400	 1.867076	 30.458010	 64.475300	-23.053370	 2.384659	 28.388700	-0.000001	-25.256260	-3.510836	-11.105210	-24.255970	 22.457430	-6.294247	 17.363910	-25.395360	 20.447170	-91.776190	 78.527420	-180.000000	 27.108350	 48.178280	-37.649300	-10.552870	-6.076190	-53.433720	 5.748157	-4.592077	-3.553285	-4.131196	 21.524690	 0.986298	-5.167839	 0.733520	 3.519257	-1.378229	 35.397820	-2.634230	 2.328322	 8.476783	 0.083769	-13.127560	-10.012200	-3.619961	 89.781910	 78.311010	-179.959200	-30.959530	 65.005260	 35.066310	-8.583785	-6.069779	 15.128240	-56.926820	-24.015780	 52.086200	 5.715225	 19.176060	-3.692089	 5.027514	 0.245388	-9.378011	-2.350882	 35.473990	 5.254307
-0.626517	-1.502576	 1.265344	-176.777600	 13.215270	 0.902230	-5.883471	-5.290995	 164.202500	 0.698343	-30.641060	 1.351539	-27.875060	 36.692730	 32.886080	-2.385833	 28.452760	 0.000004	-3.700493	-36.269760	-175.027100	-8.345374	-31.375640	 1.330883	 31.860320	 61.992560	-25.055330	 2.384659	 28.388700	-0.000001	-27.091170	-2.875916	-13.792280	-26.001750	 22.958260	-2.722859	 16.700250	-26.520570	 18.254390	-91.776190	 78.527400	-180.000000	 23.120440	 49.721690	-49.758060	-7.793605	-3.835428	-27.776130	 5.932197	-4.694897	-3.623683	-4.131196	 21.524690	 0.986298	-5.167839	 0.733520	 3.519257	-1.378229	 35.397820	-2.634230	 2.473893	 8.831390	-0.111975	-13.164570	-10.173310	-4.119674	 89.781900	 78.318160	-179.956500	-33.103320	 65.689110	 42.778830	-8.722470	-0.180033	 0.511092	-58.949640	-33.191990	 52.487630	 5.715225	 19.176060	-3.692089	 5.027514	 0.245388	-9.378011	-2.350882	 35.473990	 5.254307
-0.577166	-1.432286	 1.265450	-177.249100	 11.171800	 2.106908	-1.859974	-3.840678	 160.581800	-0.411249	-33.355950	 0.847371	-14.966050	 26.136190	 27.746830	-2.385833	 28.452760	 0.000004	-8.351387	-33.697220	-179.807300	-7.991457	-33.209240	 1.594127	 31.642400	 63.323890	-25.564140	 2.384659	 28.388700	-0.000001	-25.730450	-1.292570	-13.474620	-23.885000	 21.008480	-4.033622	 15.317830	-24.972470	 17.872740	-91.776180	 78.527400	-180.000000	 25.539210	 51.958050	-35.794570	-9.155017	-7.226501	-50.707800	 7.548080	-3.516048	-4.121160	-4.131196	 21.524690	 0.986298	-5.167839	 0.733520	 3.519257	-1.378229	 35.397820	-2.634230	 1.998225	 8.333041	-0.901500	-14.101450	-9.717328	-5.919235	 89.781970	 78.308800	-179.961400	-28.077620	 62.810020	 37.539020	-7.817263	-0.179827	 0.555928	-53.193890	-28.097580	 55.734320	 5.715225	 19.176060	-3.692089	 5.027514	 0.245388	-9.378011	-2.350882	 35.473990	 5.254307
-0.509207	-1.343597	 1.265530	-179.983600	 9.851483	 4.893250	-0.245850	-12.541270	 153.799600	-2.242892	-49.896190	-0.222413	-12.629160	 32.190250	 27.587110	-2.385833	 28.452760	 0.000004	-11.305380	-31.340080	 172.585800	-7.973021	-39.976470	 1.881655	 38.698380	 70.078620	-32.539430	 2.384659	 28.388700	-0.000001	-23.300050	 0.074276	-16.175320	-23.209230	 19.699940	-4.218804	 14.446720	-24.803470	 17.382120	-91.776200	 78.527420	-180.000000	 28.906700	 52.949070	-34.283250	-6.573541	-8.056546	-43.358020	 10.307080	-1.712549	-5.151407	-4.131196	 21.524690	 0.986298	-5.167839	 0.733520	 3.519257	-1.378229	 35.397820	-2.634230	 1.479102	 8.625799	-1.548594	-14.787260	-9.668249	-6.493254	 89.782020	 78.301340	-179.963700	-26.997310	 63.961740	 35.361250	-8.660725	-0.184655	 0.579792	-53.685600	-29.277460	 55.634260	 5.715225	 19.176060	-3.692089	 5.027514	 0.245388	-9.378011	-2.350882	 35.473990	 5.254307
-0.451101	-1.269864	 1.265799	 178.706600	 8.783607	 6.238265	-1.669669	-22.648560	 150.036200	-6.099778	-65.214410	-3.766747	-13.884580	 42.520980	 26.654990	-2.385833	 28.452760	 0.000004	-12.252000	-26.024830	 168.123100	-8.265216	-40.875530	 1.725155	 41.533720	 74.218640	-34.259160	 2.384659	 28.388700	-0.000001	-20.506620	 0.687670	-16.703000	-21.363510	 18.474590	-5.324145	 14.328530	-24.229280	 17.889980	-91.776250	 78.527380	-179.999900	 30.517050	 54.759190	-34.064250	-4.536427	-7.390294	-34.868460	 10.990290	-1.260416	-5.517576	-4.131196	 21.524690	 0.986298	-5.167839	 0.733520	 3.519257	-1.378229	 35.397820	-2.634230	 1.441177	 8.707210	-2.042879	-15.058880	-9.982325	-6.439609	 89.782060	 78.288460	-179.968100	-26.934690	 64.530720	 34.461440	-9.655390	-0.190819	 0.598836	-51.370050	-31.280800	 56.265400	 5.715225	 19.176060	-3.692089	 5.027514	 0.245388	-9.378011	-2.350882	 35.473990	 5.254307
-0.383483	-1.170737	 1.267434	 177.316900	 7.764333	 7.547069	-3.008665	-34.862160	 149.323300	-15.710610	-75.756170	-13.350910	-15.852880	 53.782210	 22.388610	-2.385833	 28.452760	 0.000004	-11.641560	-18.663090	 164.203800	-9.374138	-39.921100	 0.979525	 41.216920	 77.473290	-32.185420	 2.384659	 28.388700	-0.000001	-17.583210	 1.230307	-17.214070	-19.592120	 17.127410	-6.212903	 14.326030	-23.670960	 18.455720	-91.776120	 78.527420	 180.000000	 34.097930	 56.113290	-34.911600	-5.303051	-4.342201	-23.963500	 9.366639	-2.220315	-4.801991	-4.131196	 21.524690	 0.986298	-5.167839	 0.733520	 3.519257	-1.378229	 35.397820	-2.634230	 1.388467	 8.816140	-2.190704	-15.171650	-10.344310	-6.316058	 89.782160	 78.203900	 179.999900	-26.074020	 63.541060	 35.450160	-9.762003	-0.191759	 0.634203	-48.130180	-30.681960	 58.400200	 5.715225	 19.176060	-3.692089	 5.027514	 0.245388	-9.378011	-2.350882	 35.473990	 5.254307
-0.323551	-1.063623	 1.271646	 176.192900	 7.371401	 8.246216	 0.429469	-42.706470	 157.071000	-13.979070	-70.359610	-11.345920	-12.022800	 59.183620	 9.403797	-2.385833	 28.452760	 0.000004	-9.678311	-12.076180	 161.836000	-10.447270	-39.456430	 0.287923	 44.806870	 81.070560	-34.150590	 2.384659	 28.388700	-0.000001	-15.928960	 1.317061	-17.244510	-19.134990	 16.738290	-6.168532	 14.355870	-23.646000	 18.634220	-91.776210	 78.527400	-180.000000	 40.213190	 58.726420	-37.116680	-7.545151	-1.934670	-14.587160	 7.273226	-3.680535	-3.932900	-4.131196	 21.524690	 0.986298	-5.167839	 0.733520	 3.519257	-1.378229	 35.397820	-2.634230	 1.388437	 8.948991	-2.355647	-15.214510	-10.694780	-5.841276	 89.782050	 78.203850	-180.000000	-25.633160	 61.838620	 40.202760	-8.608654	-0.183790	 0.678582	-45.794380	-27.025950	 61.225840	 5.715225	 19.176060	-3.692089	 5.027514	 0.245388	-9.378011	-2.350882	 35.473990	 5.254307
-0.260405	-0.941351	 1.278308	 175.433800	 7.565808	 8.752838	 6.667085	-41.199470	 169.089100	-8.596101	-46.655680	-4.841995	-0.444632	 55.686040	-9.868705	-2.385833	 28.452760	 0.000004	-7.381532	-1.736679	 160.490800	-10.727810	-31.722800	 0.090707	 31.133720	 82.804400	-19.407830	 2.384659	 28.388700	-0.000001	-15.206410	 1.147252	-17.070960	-19.577050	 17.538410	-5.296246	 14.645580	-24.425020	 18.726370	-91.776120	 78.527420	 179.999900	 45.585030	 61.452620	-41.790560	-8.268722	-0.060443	-0.758136	 7.056219	-3.906240	-3.745246	-4.131196	 21.524690	 0.986298	-5.167839	 0.733520	 3.519257	-1.378229	 35.397820	-2.634230	 1.471150	 9.398314	-2.439433	-15.225520	-11.441750	-5.843708	 89.782070	 78.203920	-180.000000	-25.800830	 60.127030	 47.214790	-7.599330	-0.178613	 0.729322	-43.759940	-23.583720	 64.134490	 5.715225	 19.176060	-3.692089	 5.027514	 0.245388	-9.378011	-2.350882	 35.473990	 5.254307
-0.202560	-0.829334	 1.276002	 174.991300	 8.047071	 8.779942	 3.136160	-36.909980	 170.854700	-7.855259	-33.892880	-3.299881	 4.840718	 62.000420	-16.275930	-2.385833	 28.452760	 0.000004	-4.297267	 9.025769	 159.725000	-10.909670	-19.811730	-0.003174	 9.103559	 79.857880	 3.318358	 2.384659	 28.388700	-0.000001	-14.762850	 0.502119	-16.535460	-19.844310	 18.098860	-4.872998	 14.933890	-24.626920	 19.008430	-91.776180	 78.527380	-180.000000	 47.667660	 63.083000	-39.769830	-9.094958	-0.052948	-0.791142	 6.672260	-4.256478	-3.533585	-4.131196	 21.524690	 0.986298	-5.167839	 0.733520	 3.519257	-1.378229	 35.397820	-2.634230	 1.696752	 9.083219	-2.712788	-15.153710	-11.457680	-5.253197	 89.782110	 78.203870	 180.000000	-29.973560	 60.374690	 45.685310	-6.128779	-7.057554	 19.966450	-43.449070	-13.929020	 62.440560	 5.715225	 19.176060	-3.692089	 5.027514	 0.245388	-9.378011	-2.350882	 35.473990	 5.254307
